<svg xmlns="http://www.w3.org/2000/svg" width="1067" height="1067" viewBox="0 0 1067 1067">
  <defs>
    <style>
      .cls-1 {
        fill: #ebebeb;
        fill-rule: evenodd;
      }
    </style>
  </defs>
  <path id="T" class="cls-1" d="M187.68,218.556q7.9-11.672,26.937-21.031,19.032-9.328,53.891-13.422,34.829-4.079,98.109-4.094,60.3,0,110.688,4.688,6.984,17.016,10.172,46.594,3.188,29.6,4.093,83.515,0.891,53.93.907,179.344,0,42.8-.594,73.563t-1.75,104.031q-1.171,73.266-1.156,69.75-4.687,37.5-4.672,66.219,0,24.047-4.672,35.171-4.687,11.133-22.485,18.75-17.812,7.641-58.656,17-28.593,7.032-36.187,9.375,4.077,10.923,7.89,14.969t12.594,4.031q3.516,0,40.984-6.453,67.875-10.547,124.672-10.547,24,0,63.219,3.5,26.929,1.173,62.641,3.5a186.742,186.742,0,0,0,22.828-1.125c0.781-1.515,1.172-6.015,1.172-13.546q0-5.062-26.453-7.329-40.595-5.273-57.329-11.156-16.757-5.859-24.984-24.656-8.25-18.8-10.031-54.313-1.8-35.531-1.8-123.609,0.586-69.28,1.187-163.531t1.2-115.391q3.609-84.562,3.609-103.344l3.594-78.687q1.172-12.913,5.89-16.734,4.712-3.8,23.578-4.688t77.844-.891q80.766,0,117.328,8.625t53.047,22.875q-1.781,33.891-4.687,53.5l24-3.531q11.625-64.312,32-119.859a49.333,49.333,0,0,1-15.125-14.61q-9.4,10.36-17.61,13.532-8.226,3.188-32.859,3.172-8.812,0-69.25,1.156t-71.594,1.14H412.93q-133.219,0-170.766-4.765-18.187-2.391-25.234-6.25t-21.125-16.985q-21.8,66.165-49.5,139.329l20,4.671Q179.757,230.245,187.68,218.556Z"/>
</svg>
